<svg xmlns="http://www.w3.org/2000/svg" version="1.1" xmlns:xlink="http://www.w3.org/1999/xlink" width="200" height="200"><svg xmlns="http://www.w3.org/2000/svg" version="1.1" xmlns:xlink="http://www.w3.org/1999/xlink" viewBox="0 0 200 200"><rect width="200" height="200" fill="url('#gradient')"></rect><defs><linearGradient id="SvgjsLinearGradient1001" gradientTransform="rotate(45 0.5 0.5)"><stop offset="0%" stop-color="#304b63"></stop><stop offset="100%" stop-color="#261b1d"></stop></linearGradient></defs><g><g fill="#87ced8" transform="matrix(1.8348412786196218,0,0,1.8348412786196218,17.84947355912726,113.77036630599692)" stroke="#2b3c33" stroke-width="0.2"><path d="M8.41-3.78L8.41-3.78Q8.41-4.53 7.88-4.95Q7.34-5.37 6.01-5.82Q4.67-6.27 3.82-6.69L3.82-6.69Q1.05-8.05 1.05-10.42L1.05-10.42Q1.05-11.60 1.74-12.50Q2.43-13.41 3.69-13.91Q4.95-14.41 6.52-14.41L6.52-14.41Q8.06-14.41 9.27-13.87Q10.49-13.32 11.16-12.31Q11.84-11.30 11.84-10L11.84-10L8.42-10Q8.42-10.87 7.89-11.35Q7.35-11.83 6.45-11.83L6.45-11.83Q5.53-11.83 5.00-11.42Q4.46-11.02 4.46-10.39L4.46-10.39Q4.46-9.84 5.05-9.40Q5.63-8.96 7.11-8.48Q8.58-8.01 9.53-7.46L9.53-7.46Q11.84-6.13 11.84-3.80L11.84-3.80Q11.84-1.93 10.43-0.87Q9.02 0.20 6.57 0.20L6.57 0.20Q4.84 0.20 3.44-0.42Q2.04-1.04 1.33-2.12Q0.63-3.20 0.63-4.61L0.63-4.61L4.06-4.61Q4.06-3.47 4.65-2.92Q5.24-2.38 6.57-2.38L6.57-2.38Q7.42-2.38 7.92-2.75Q8.41-3.12 8.41-3.78ZM16.66-15L16.66-9.43Q17.71-10.76 19.36-10.76L19.36-10.76Q21.10-10.76 21.99-9.73Q22.88-8.69 22.90-6.67L22.90-6.67L22.90 0L19.60 0L19.60-6.59Q19.60-7.43 19.26-7.83Q18.92-8.22 18.10-8.22L18.10-8.22Q17.08-8.22 16.66-7.58L16.66-7.58L16.66 0L13.37 0L13.37-15L16.66-15ZM28.20-10.57L28.20 0L24.90 0L24.90-10.57L28.20-10.57ZM24.71-13.29L24.71-13.29Q24.71-13.99 25.21-14.44Q25.72-14.89 26.53-14.89Q27.34-14.89 27.85-14.44Q28.36-13.99 28.36-13.29Q28.36-12.59 27.85-12.14Q27.34-11.69 26.53-11.69Q25.72-11.69 25.21-12.14Q24.71-12.59 24.71-13.29ZM34.26 0L30.96 0L30.96-8.28L29.42-8.28L29.42-10.57L30.96-10.57L30.96-11.41Q30.96-13.21 32.02-14.21Q33.09-15.21 35.01-15.21L35.01-15.21Q35.71-15.21 36.55-15L36.55-15L36.56-12.58Q36.26-12.67 35.75-12.67L35.75-12.67Q34.26-12.67 34.26-11.38L34.26-11.38L34.26-10.57L36.32-10.57L36.32-8.28L34.26-8.28L34.26 0ZM38.02-13.19L41.31-13.19L41.31-10.57L43.05-10.57L43.05-8.28L41.31-8.28L41.31-3.45Q41.31-2.85 41.52-2.62Q41.74-2.38 42.37-2.38L42.37-2.38Q42.86-2.38 43.19-2.44L43.19-2.44L43.19-0.09Q42.30 0.20 41.34 0.20L41.34 0.20Q39.64 0.20 38.83-0.61Q38.02-1.41 38.02-3.04L38.02-3.04L38.02-8.28L36.67-8.28L36.67-10.57L38.02-10.57L38.02-13.19ZM44.49-14.22L48.99-14.22L52.17-4.33L55.33-14.22L59.84-14.22L59.84 0L56.41 0L56.41-3.32L56.74-10.12L53.30 0L51.04 0L47.59-10.13L47.92-3.32L47.92 0L44.49 0L44.49-14.22ZM71.11 0L67.82 0Q67.65-0.32 67.51-0.95L67.51-0.95Q66.60 0.20 64.97 0.20L64.97 0.20Q63.48 0.20 62.43-0.71Q61.39-1.61 61.39-2.98L61.39-2.98Q61.39-4.70 62.66-5.58Q63.93-6.46 66.35-6.46L66.35-6.46L67.36-6.46L67.36-7.01Q67.36-8.47 66.10-8.47L66.10-8.47Q64.93-8.47 64.93-7.31L64.93-7.31L61.64-7.31Q61.64-8.85 62.94-9.80Q64.25-10.76 66.27-10.76Q68.29-10.76 69.46-9.78Q70.63-8.79 70.66-7.07L70.66-7.07L70.66-2.39Q70.68-0.94 71.11-0.17L71.11-0.17L71.11 0ZM65.76-2.15L65.76-2.15Q66.38-2.15 66.78-2.41Q67.19-2.68 67.36-3.01L67.36-3.01L67.36-4.70L66.41-4.70Q64.69-4.70 64.69-3.15L64.69-3.15Q64.69-2.71 64.99-2.43Q65.29-2.15 65.76-2.15ZM73.03-13.19L76.32-13.19L76.32-10.57L78.06-10.57L78.06-8.28L76.32-8.28L76.32-3.45Q76.32-2.85 76.53-2.62Q76.75-2.38 77.38-2.38L77.38-2.38Q77.87-2.38 78.20-2.44L78.20-2.44L78.20-0.09Q77.31 0.20 76.35 0.20L76.35 0.20Q74.65 0.20 73.84-0.61Q73.03-1.41 73.03-3.04L73.03-3.04L73.03-8.28L71.68-8.28L71.68-10.57L73.03-10.57L73.03-13.19ZM84.46 0.20L84.46 0.20Q82.03 0.20 80.53-1.25Q79.02-2.71 79.02-5.03L79.02-5.03L79.02-5.30Q79.02-6.92 79.62-8.16Q80.22-9.40 81.38-10.08Q82.53-10.76 84.11-10.76L84.11-10.76Q86.34-10.76 87.63-9.38Q88.92-8.00 88.92-5.53L88.92-5.53L88.92-4.25L82.37-4.25Q82.55-3.36 83.14-2.85Q83.74-2.34 84.69-2.34L84.69-2.34Q86.25-2.34 87.13-3.44L87.13-3.44L88.63-1.66Q88.02-0.81 86.89-0.31Q85.76 0.20 84.46 0.20ZM84.09-8.22L84.09-8.22Q82.65-8.22 82.37-6.31L82.37-6.31L85.69-6.31L85.69-6.56Q85.71-7.35 85.29-7.79Q84.87-8.22 84.09-8.22Z"></path></g></g></svg><style>@media (prefers-color-scheme: light) { :root { filter: none; } }
@media (prefers-color-scheme: dark) { :root { filter: none; } }
</style></svg>